<svg width="48" height="48" viewBox="0 0 48 48" fill="none" xmlns="http://www.w3.org/2000/svg">
<circle cx="24" cy="24" r="24" fill="#C7594D"/>
<path d="M24.0001 11.2974C31.9373 11.2974 38.4001 16.5418 38.4001 22.9869C38.4001 25.5649 37.4024 27.8869 35.3188 30.1825C32.2905 33.6611 25.5363 37.899 24.0001 38.5435C22.5105 39.1684 22.6811 38.1913 22.7492 37.8014L22.7552 37.7665C22.7737 37.6559 22.7918 37.5492 22.8092 37.4462C23.1493 35.4378 23.2469 34.8618 21.6428 34.5175C14.7209 33.5993 9.6001 28.761 9.6001 22.9869C9.6001 16.5418 16.0629 11.2974 24.0001 11.2974Z" fill="white"/>
<path d="M28.3083 26.43V20.1526C28.3083 20.0026 28.1758 19.8701 28.0169 19.8789H27.0104C26.8515 19.8789 26.7279 20.0026 26.7279 20.1615V23.8873L23.8497 20.0026C23.8055 19.9231 23.7084 19.8789 23.6201 19.8789H22.6224C22.4635 19.8789 22.3399 20.0026 22.3399 20.1615V26.4388C22.3399 26.5978 22.4635 26.7214 22.6224 26.7214H23.6289C23.7879 26.7214 23.9115 26.5978 23.9115 26.4388V22.713L26.7897 26.5978C26.8338 26.6596 26.9221 26.7125 27.0193 26.7125H28.0258C28.1847 26.7125 28.3083 26.5889 28.3083 26.43Z" fill="#C7594D"/>
<path d="M20.062 19.8701H21.0685C21.2275 19.8701 21.3511 20.0026 21.3511 20.1526V26.43C21.3511 26.5889 21.2275 26.7125 21.0685 26.7125H20.062C19.9031 26.7125 19.7795 26.5889 19.7795 26.43V20.1526C19.7795 19.9937 19.9031 19.8701 20.062 19.8701Z" fill="#C7594D"/>
<path d="M15.8948 25.1322H18.6406C18.7907 25.1322 18.9143 25.2646 18.9143 25.4147V26.4212C18.9143 26.5801 18.7907 26.7037 18.6318 26.7037H14.5969C14.5175 26.7037 14.4557 26.6684 14.4027 26.6243C14.3497 26.5713 14.3232 26.5095 14.3232 26.43V20.1526C14.3232 19.9937 14.4468 19.8701 14.6058 19.8701H15.6123C15.7712 19.8701 15.8948 19.9937 15.8948 20.1526V25.1322Z" fill="#C7594D"/>
<path d="M29.5708 19.8701H33.6056C33.7557 19.8701 33.8793 20.0026 33.8882 20.1526V21.1591C33.8882 21.3181 33.7646 21.4417 33.6056 21.4417H30.8598V22.5011H33.6056C33.7646 22.5011 33.8882 22.6247 33.8882 22.7837V23.799C33.8882 23.9579 33.7646 24.0815 33.6056 24.0815H30.8598V25.141H33.6056C33.7646 25.141 33.8882 25.2646 33.8882 25.4235V26.43C33.8882 26.5889 33.7646 26.7125 33.6056 26.7125H29.5708C29.4119 26.7125 29.2883 26.5801 29.2883 26.43V20.1526C29.2883 19.9937 29.4207 19.8701 29.5708 19.8701Z" fill="#C7594D"/>
</svg>
